<svg xmlns="http://www.w3.org/2000/svg" viewBox="0 0 11.493 11.209" height="42.365" width="43.438" xmlns:v="https://vecta.io/nano"><path d="M5.747 0a5.75 5.75 0 0 1 1.816 11.2c-.288.053-.392-.125-.392-.277l.008-.977c1.6.347 1.936-.77 1.936-.77.26-.664.638-.84.638-.84.522-.357-.04-.35-.04-.35-.577.04-.88.592-.88.592-.513.878-1.345.624-1.673.478-.052-.37-.2-.625-.365-.768 1.276-.145 2.618-.638 2.618-2.84a2.22 2.22 0 0 0-.592-1.542c.06-.145.256-.73-.056-1.52 0 0-.483-.155-1.58.59-.458-.127-.95-.19-1.44-.193a5.51 5.51 0 0 0-1.439.193c-1.097-.744-1.58-.59-1.58-.59-.314.79-.116 1.375-.057 1.52-.368.402-.59.915-.59 1.542 0 2.208 1.344 2.693 2.624 2.836-.206.177-.4.528-.4 1.064l.007 1.576c0 .154-.103.333-.395.277A5.75 5.75 0 0 1 .001 5.747 5.75 5.75 0 0 1 5.748 0" fill="#1b1817" fill-rule="evenodd"/></svg>