<svg xmlns="http://www.w3.org/2000/svg" viewBox="0 0 511.999 511.999" xmlns:v="https://vecta.io/nano"><path d="M437.02 74.98C388.667 26.628 324.38 0 256 0S123.332 26.628 74.98 74.98 0 187.62 0 256s26.628 132.667 74.98 181.02S187.62 512 256 512s132.667-26.628 181.02-74.98S512 324.38 512 256 485.37 123.332 437.02 74.98zM96.216 96.216c22.51-22.51 48.938-39.68 77.742-50.888-7.672 9.578-14.85 20.587-21.43 32.97-7.64 14.38-14.234 30.173-19.725 47.042-19.022-3.157-36.647-7.04-52.393-11.595 4.935-6.066 10.2-11.922 15.806-17.528zm-33.987 43.37c18.417 5.897 39.48 10.87 62.46 14.81-6.4 27.166-10.167 56.4-11.066 86.59H30.536c2.36-36.233 13.242-70.813 31.693-101.4zm-1.635 230.053c-17.455-29.9-27.77-63.48-30.06-98.623h83.146c.982 29.33 4.674 57.73 10.858 84.186-23.454 3.802-45.045 8.65-63.945 14.437zm35.622 46.146c-6.38-6.38-12.322-13.08-17.83-20.055 16.323-4.526 34.57-8.36 54.214-11.433 5.53 17.103 12.194 33.105 19.928 47.662 7.17 13.493 15.053 25.35 23.5 35.505-29.6-11.183-56.77-28.63-79.82-51.68zm144.768 62.33c-22.808-6.39-44.384-27.217-61.936-60.25-6.14-11.552-11.53-24.155-16.15-37.587 24.73-2.722 51.045-4.33 78.086-4.71v102.545zm0-132.578c-29.988.41-59.217 2.292-86.6 5.507-6.038-24.96-9.67-51.978-10.668-80.028h97.26v74.52zm0-104.553H143.67c.91-28.834 4.602-56.605 10.828-82.2 27.198 3.4 56.366 5.468 86.487 6.06v76.14zm0-106.176c-27.146-.547-53.403-2.317-77.958-5.205 4.59-13.292 9.94-25.768 16.022-37.215 17.55-33.032 39.128-53.86 61.936-60.25v102.67zm209.733 6.372c17.874 30.193 28.427 64.2 30.75 99.804h-83.088c-.89-29.844-4.584-58.75-10.85-85.647 23.133-3.736 44.456-8.49 63.19-14.157zm-34.934-44.964c6.03 6.03 11.66 12.35 16.914 18.9-16.073 4.39-33.972 8.114-53.204 11.112-5.548-17.208-12.243-33.305-20.02-47.94-6.58-12.382-13.758-23.39-21.43-32.97 28.802 11.207 55.23 28.377 77.74 50.888zm-144.767 174.8h97.26c-1.004 28.268-4.686 55.5-10.8 80.612-27.194-3.38-56.35-5.43-86.45-6.006v-74.606zm0-30.032v-76.04c30.005-.394 59.257-2.26 86.656-5.464 6.125 25.403 9.756 52.932 10.66 81.505h-97.315zm-.002-208.845h.001c22.808 6.39 44.384 27.217 61.936 60.25 6.178 11.627 11.6 24.318 16.24 37.848-24.763 2.712-51.108 4.31-78.177 4.674V32.14zm.002 445.976V375.657c27.12.532 53.357 2.286 77.903 5.156-4.58 13.232-9.91 25.654-15.967 37.053-17.552 33.032-39.128 53.86-61.936 60.25zm144.767-62.33c-23.05 23.05-50.2 40.496-79.82 51.678 8.457-10.156 16.34-22.01 23.5-35.504 7.62-14.34 14.198-30.088 19.68-46.906 19.465 3.213 37.473 7.186 53.515 11.86-5.243 6.546-10.866 12.854-16.884 18.873zm34.823-44.775c-18.635-5.99-40-11.032-63.326-15 6.296-26.68 10.048-55.36 11.04-84.983h83.146c-2.328 35.678-12.918 69.753-30.86 99.993z"/></svg>