<svg xmlns="http://www.w3.org/2000/svg" viewBox="0 0 384 384" xmlns:v="https://vecta.io/nano"><path d="M383.888 63.256c-.04-.792-.192-1.552-.352-2.336-.16-.792-.304-1.568-.576-2.32-.088-.24-.08-.488-.176-.72-.2-.472-.536-.848-.776-1.296-.384-.728-.768-1.432-1.256-2.088-.464-.624-.992-1.16-1.544-1.704l-1.704-1.544c-.656-.488-1.36-.872-2.088-1.256-.448-.24-.816-.584-1.296-.776-.232-.096-.488-.096-.72-.184-.744-.272-1.504-.416-2.288-.576-.8-.16-1.576-.32-2.384-.36-.248 0-.48-.096-.728-.096H16c-.256 0-.496.104-.752.112-.792.04-1.552.192-2.336.352-.792.16-1.568.304-2.32.576-.24.088-.488.08-.72.176-.472.2-.848.536-1.296.776-.728.384-1.432.768-2.088 1.256-.624.464-1.16.992-1.704 1.544L3.24 54.496c-.488.656-.872 1.36-1.256 2.088-.24.448-.584.816-.776 1.296-.096.232-.096.48-.176.72-.272.752-.416 1.528-.576 2.32-.152.784-.312 1.544-.352 2.336C.096 63.512 0 63.744 0 64v256c0 1.048.112 2.096.312 3.136.096.472.272.912.408 1.368l.504 1.616c.224.536.528 1.024.808 1.536l.664 1.224a16.01 16.01 0 0 0 4.432 4.432c.392.264.824.448 1.24.672l1.52.8c.528.216 1.08.344 1.624.504l1.368.408c1.024.192 2.072.304 3.12.304h352c1.048 0 2.096-.112 3.136-.312.472-.096.912-.272 1.368-.408l1.624-.504c.528-.224 1.016-.52 1.52-.8l1.24-.672a16.12 16.12 0 0 0 4.432-4.432c.264-.392.44-.816.664-1.224l.808-1.536c.216-.528.344-1.072.504-1.616l.408-1.368c.184-1.032.296-2.08.296-3.128V64c0-.256-.096-.488-.112-.744zM329.368 80L208.064 201.312c-8.856 8.848-23.264 8.848-32.128 0L54.632 80h274.736zM32 102.632L121.376 192 32 281.376V102.632zM54.624 304L144 214.624l9.312 9.312c1.336 1.336 2.72 2.584 4.152 3.752 20.032 16.336 49.04 16.336 69.072 0 1.432-1.168 2.816-2.416 4.152-3.752l9.312-9.312L329.376 304H54.624zM352 281.376L262.624 192 352 102.632v178.744z"/></svg>