<svg xmlns="http://www.w3.org/2000/svg" height="29.903" width="30.822" xmlns:v="https://vecta.io/nano"><path d="M10.154.21c.193-.06.38-.16.585-.178 1.202-.12 2.43.205 3.64.282 1.55.103 2.358 7.61.383 7.646-.732.008-2.94-.312-3.623-.06-.6.225-.65 1.214-.334 1.94.834 1.91 2.222 4.174 3.276 6.11h.002l.086.163.09.162h-.002l3.28 6.11c.43.666 1.277 1.177 1.8.793.587-.43 1.542-2.446 1.952-3.052 1.12-1.627 6.933 3.2 6.16 4.548-.606 1.05-1.012 2.252-1.777 3.19-.13.158-.317.258-.473.39-3.56 3.075-9.555 1.8-12.794-3.222-1.237-1.918-2.4-3.88-3.524-5.87l-.01.005c-.028-.055-.053-.1-.083-.164s-.06-.106-.09-.16l.01-.006a109.39 109.39 0 0 1-2.945-6.182C3.37 7.176 5.625 1.475 10.154.21zm25.462 7.953c-18.193-8.868-9.097-4.434 0 0z"/></svg>